<svg xmlns="http://www.w3.org/2000/svg" xmlns:xlink="http://www.w3.org/1999/xlink" width="40" zoomAndPan="magnify" viewBox="0 0 30 30.000001" height="40" preserveAspectRatio="xMidYMid meet" version="1.0"><defs><clipPath id="15a24cc048"><path d="M 9.195312 8.710938 L 20.804688 8.710938 L 20.804688 20.324219 L 9.195312 20.324219 Z M 9.195312 8.710938 " clip-rule="nonzero"/></clipPath></defs><g clip-path="url(#15a24cc048)"><path fill="#ffffff" d="M 16.667969 8.707031 L 13.332031 8.707031 C 11.046875 8.707031 9.191406 10.566406 9.191406 12.847656 L 9.191406 16.1875 C 9.191406 18.46875 11.046875 20.324219 13.332031 20.324219 L 16.667969 20.324219 C 18.953125 20.324219 20.808594 18.46875 20.808594 16.1875 L 20.808594 12.847656 C 20.808594 10.566406 18.953125 8.707031 16.667969 8.707031 Z M 20.152344 16.1875 C 20.152344 18.105469 18.589844 19.667969 16.667969 19.667969 L 13.332031 19.667969 C 11.410156 19.667969 9.847656 18.105469 9.847656 16.1875 L 9.847656 12.847656 C 9.847656 10.925781 11.410156 9.367188 13.332031 9.367188 L 16.667969 9.367188 C 18.589844 9.367188 20.152344 10.925781 20.152344 12.847656 Z M 20.152344 16.1875 " fill-opacity="1" fill-rule="nonzero"/></g><path fill="#ffffff" d="M 18.167969 10.09375 C 17.621094 10.09375 17.175781 10.539062 17.175781 11.085938 C 17.175781 11.246094 17.214844 11.398438 17.28125 11.53125 C 16.648438 11.046875 15.859375 10.757812 15 10.757812 C 12.925781 10.757812 11.238281 12.441406 11.238281 14.515625 C 11.238281 16.589844 12.925781 18.277344 15 18.277344 C 17.074219 18.277344 18.761719 16.589844 18.761719 14.515625 C 18.761719 13.550781 18.394531 12.667969 17.792969 12.003906 C 17.910156 12.050781 18.035156 12.078125 18.167969 12.078125 C 18.714844 12.078125 19.15625 11.632812 19.15625 11.085938 C 19.15625 10.539062 18.714844 10.09375 18.167969 10.09375 Z M 15 17.621094 C 13.289062 17.621094 11.898438 16.226562 11.898438 14.515625 C 11.898438 12.804688 13.289062 11.414062 15 11.414062 C 16.710938 11.414062 18.101562 12.804688 18.101562 14.515625 C 18.101562 16.226562 16.710938 17.621094 15 17.621094 Z M 18.167969 11.417969 C 17.980469 11.417969 17.832031 11.269531 17.832031 11.085938 C 17.832031 10.898438 17.980469 10.75 18.167969 10.75 C 18.351562 10.75 18.5 10.898438 18.5 11.085938 C 18.5 11.269531 18.351562 11.417969 18.167969 11.417969 Z M 18.167969 11.417969 " fill-opacity="1" fill-rule="nonzero"/></svg>