<svg xmlns="http://www.w3.org/2000/svg" xmlns:xlink="http://www.w3.org/1999/xlink" width="40" zoomAndPan="magnify" viewBox="0 0 30 30.000001" height="40" preserveAspectRatio="xMidYMid meet" version="1.0"><defs><clipPath id="81fb1bd089"><path d="M 12.257812 8.367188 L 18.0625 8.367188 L 18.0625 19.980469 L 12.257812 19.980469 Z M 12.257812 8.367188 " clip-rule="nonzero"/></clipPath></defs><g clip-path="url(#81fb1bd089)"><path fill="#ffffff" d="M 16.722656 10.300781 L 18.0625 10.300781 L 18.0625 8.394531 L 16.351562 8.394531 L 16.351562 8.402344 C 14.101562 8.480469 13.640625 9.667969 13.601562 10.925781 L 13.597656 10.925781 L 13.597656 12.246094 L 12.257812 12.246094 L 12.257812 14.15625 L 13.597656 14.15625 L 13.597656 19.953125 L 16 19.953125 L 16 14.15625 L 17.722656 14.15625 L 18.0625 12.246094 L 16 12.246094 L 16 11.0625 C 16 10.644531 16.296875 10.300781 16.722656 10.300781 Z M 16.722656 10.300781 " fill-opacity="1" fill-rule="nonzero"/></g></svg>