<svg xmlns="http://www.w3.org/2000/svg" xmlns:xlink="http://www.w3.org/1999/xlink" width="40" zoomAndPan="magnify" viewBox="0 0 30 30.000001" height="40" preserveAspectRatio="xMidYMid meet" version="1.0"><defs><clipPath id="654b47fd49"><path d="M 9.195312 8.710938 L 20.804688 8.710938 L 20.804688 20.324219 L 9.195312 20.324219 Z M 9.195312 8.710938 " clip-rule="nonzero"/></clipPath></defs><g clip-path="url(#654b47fd49)"><path fill="#ffffff" d="M 15 8.710938 C 11.792969 8.710938 9.195312 11.308594 9.195312 14.515625 C 9.195312 17.722656 11.792969 20.324219 15 20.324219 C 18.207031 20.324219 20.804688 17.722656 20.804688 14.515625 C 20.800781 11.308594 18.203125 8.710938 15 8.710938 Z M 18.34375 16.140625 C 18.277344 16.566406 17.90625 16.878906 17.472656 16.878906 L 12.523438 16.878906 C 12.089844 16.878906 11.71875 16.566406 11.652344 16.140625 C 11.589844 15.742188 11.53125 15.191406 11.527344 14.511719 C 11.53125 13.832031 11.585938 13.285156 11.652344 12.882812 C 11.71875 12.453125 12.089844 12.144531 12.523438 12.144531 L 17.472656 12.144531 C 17.90625 12.144531 18.277344 12.453125 18.34375 12.882812 C 18.402344 13.28125 18.464844 13.832031 18.46875 14.511719 C 18.464844 15.191406 18.402344 15.742188 18.34375 16.140625 Z M 18.34375 16.140625 " fill-opacity="1" fill-rule="nonzero"/></g><path fill="#ffffff" d="M 14.265625 13.570312 L 14.265625 15.457031 L 16.019531 14.515625 Z M 14.265625 13.570312 " fill-opacity="1" fill-rule="nonzero"/></svg>